<svg width="37" height="37" viewBox="0 0 37 37" fill="none" xmlns="http://www.w3.org/2000/svg">
<path d="M18.5029 36.9954C13.5799 36.9954 8.65691 36.9887 3.73391 36.9979C1.59947 37.0021 -0.0048524 35.3893 1.10277e-05 33.2561C0.0121696 28.3434 0.00305067 23.4301 0.00305067 18.5174C0.00305067 14.4352 0.00305067 10.353 0.0036586 6.27072C0.0036586 5.33877 -0.00667619 4.40681 0.0115617 3.47486C0.0480374 1.62493 1.63352 0.0224334 3.48587 0.0133145C7.60884 -0.00735507 11.7318 0.00237178 15.8542 0.00176385C20.3419 0.00115592 24.829 0.00237178 29.3168 0.00297971C30.6846 0.00297971 32.0518 -0.00249165 33.4197 0.00358764C35.365 0.0127066 36.99 1.61581 36.9949 3.55997C37.0052 7.50056 36.9955 11.4405 36.9955 15.3811C36.9955 19.4226 36.9973 23.4648 36.9973 27.5063C36.9973 29.4918 37.0071 31.4773 36.9894 33.4628C36.973 35.3723 35.3924 36.9729 33.4835 36.9857C30.2019 37.007 26.9197 36.9948 23.6381 36.9954C21.9268 36.996 20.2148 36.9954 18.5029 36.9954ZM16.6913 17.8025C16.7764 17.7508 16.8184 17.7241 16.8609 17.6992C18.2135 16.9137 18.9066 15.7331 18.7759 14.1774C18.6427 12.5877 17.7357 11.5153 16.2512 10.9512C15.3447 10.6071 14.3806 10.6192 13.4322 10.6107C11.2947 10.5907 9.15663 10.6046 7.01915 10.6046C6.92067 10.6046 6.82218 10.6046 6.71154 10.6046C6.71154 15.7368 6.71154 20.8349 6.71154 25.9494C6.81428 25.9542 6.89392 25.9609 6.97356 25.9609C8.78701 25.9615 10.6011 25.9828 12.4139 25.9542C13.6377 25.9348 14.8754 25.9463 16.0803 25.7676C19.0355 25.3281 20.1504 22.0112 19.2391 19.9479C18.7467 18.8317 17.8609 18.1825 16.6913 17.8025ZM23.0812 21.2501C25.505 21.2501 27.9325 21.2501 30.3989 21.2501C30.3989 21.123 30.4074 21.0239 30.3977 20.9261C30.3223 20.1619 30.287 19.3904 30.1539 18.6366C29.997 17.7508 29.6353 16.9368 29.0359 16.2456C28.0662 15.127 26.8115 14.6626 25.361 14.5805C23.3524 14.4668 21.4648 15.5258 20.6343 17.3612C19.7911 19.2257 19.7759 21.1498 20.4422 23.0696C20.8422 24.2216 21.576 25.1396 22.7037 25.6466C24.3907 26.4047 26.1245 26.4479 27.8267 25.7074C29.0553 25.173 29.7861 24.1621 30.2341 22.8927C29.2408 22.7261 28.2766 22.5644 27.3015 22.4003C27.2437 22.5504 27.1957 22.6824 27.1428 22.8118C26.93 23.3328 26.5963 23.7505 26.0358 23.8976C24.1907 24.3821 22.9335 22.8076 23.0812 21.2501ZM28.2164 11.6655C26.1811 11.6655 24.1743 11.6655 22.1748 11.6655C22.1748 12.347 22.1748 13.0005 22.1748 13.6637C24.198 13.6637 26.1981 13.6637 28.2164 13.6637C28.2164 12.9926 28.2164 12.3385 28.2164 11.6655Z" fill="#251535"/>
<path d="M9.81989 23.3128C9.81989 21.9881 9.81989 20.6561 9.81989 19.3108C9.85758 19.3016 9.89466 19.284 9.93114 19.2846C11.3677 19.3041 12.8048 19.3083 14.2407 19.3539C14.9022 19.3752 15.5344 19.5576 15.9472 20.1333C16.4165 20.7874 16.4481 21.5145 16.1484 22.2385C15.8524 22.9541 15.2244 23.2659 14.5028 23.2903C12.9659 23.3419 11.4266 23.3304 9.88858 23.3438C9.87156 23.3432 9.85393 23.328 9.81989 23.3128Z" fill="#251535"/>
<path d="M9.81441 16.6912C9.81441 15.5143 9.81441 14.3744 9.81441 13.2127C9.89952 13.2036 9.97672 13.189 10.0533 13.189C11.3288 13.1938 12.6042 13.1963 13.8796 13.2102C14.1003 13.2127 14.3258 13.2419 14.5398 13.296C15.366 13.5039 15.8098 14.1319 15.7672 15.0067C15.7259 15.8584 15.1599 16.4906 14.2699 16.6116C13.7811 16.6785 13.282 16.6827 12.7872 16.6882C11.806 16.6985 10.8254 16.6912 9.81441 16.6912Z" fill="#251535"/>
<path d="M27.4285 19.4087C25.9768 19.4087 24.5457 19.4087 23.1171 19.4087C22.9542 18.1089 23.9098 16.901 25.1251 16.8542C26.5039 16.8007 27.5027 17.8925 27.4285 19.4087Z" fill="#251535"/>
</svg>
