<svg width="31" height="25" viewBox="0 0 31 25" fill="none" xmlns="http://www.w3.org/2000/svg">
<path d="M6.07107 0C2.93532 0 0.48101 0.792407 0.0478008 3.80636C-0.0909494 4.77144 0.214283 5.72113 0.915742 6.40717C1.26416 6.74788 1.63263 7.15334 2.11979 7.56342C3.34234 8.59479 4.90097 9.75412 6.35938 10.7917C10.3723 13.6437 13.5405 15.4167 15.4167 15.4167C17.2929 15.4167 20.461 13.6437 24.474 10.7917C25.934 9.75412 27.4926 8.59325 28.7136 7.56342C29.2008 7.15334 29.5692 6.74942 29.9176 6.40717C30.6191 5.72113 30.9243 4.77144 30.7856 3.80636C30.3524 0.792407 27.8981 0 24.7623 0H6.07107ZM0 9.4905V18.5C0 21.9055 2.76113 24.6666 6.16668 24.6666H24.6667C28.0723 24.6666 30.8334 21.9055 30.8334 18.5V9.4905C29.5692 10.6915 28.157 11.931 26.1606 13.3447C21.7884 16.4403 17.8618 18.5 15.4167 18.5C12.9716 18.5 9.04498 16.4403 4.67281 13.3447C2.6748 11.931 1.26417 10.6915 0 9.4905Z" fill="#251535"/>
</svg>
