<svg width="37" height="37" viewBox="0 0 37 37" fill="none" xmlns="http://www.w3.org/2000/svg">
<path d="M34.2687 0H2.73132C2.00693 0 1.31221 0.287764 0.799985 0.799985C0.287764 1.31221 0 2.00693 0 2.73132V34.2687C0 34.9931 0.287764 35.6878 0.799985 36.2C1.31221 36.7122 2.00693 37 2.73132 37H34.2687C34.9931 37 35.6878 36.7122 36.2 36.2C36.7122 35.6878 37 34.9931 37 34.2687V2.73132C37 2.00693 36.7122 1.31221 36.2 0.799985C35.6878 0.287764 34.9931 0 34.2687 0ZM11.0281 31.5194H5.46521V13.8493H11.0281V31.5194ZM8.24278 11.4006C7.61177 11.3971 6.99595 11.2067 6.47305 10.8535C5.95014 10.5003 5.54359 10.0001 5.30469 9.41602C5.06579 8.83197 5.00525 8.19025 5.13071 7.57183C5.25618 6.95341 5.56203 6.38601 6.00966 5.94125C6.45728 5.49648 7.02663 5.19429 7.64584 5.07279C8.26506 4.9513 8.90638 5.01596 9.48888 5.2586C10.0714 5.50125 10.569 5.91101 10.9188 6.43617C11.2686 6.96133 11.4551 7.57836 11.4546 8.20938C11.4605 8.63184 11.3814 9.05119 11.2218 9.44241C11.0622 9.83363 10.8256 10.1887 10.5258 10.4865C10.2261 10.7843 9.86952 11.0187 9.47728 11.1758C9.08504 11.3328 8.6652 11.4093 8.24278 11.4006ZM31.5322 31.5348H25.9719V21.8814C25.9719 19.0344 24.7617 18.1557 23.1995 18.1557C21.5499 18.1557 19.9312 19.3993 19.9312 21.9533V31.5348H14.3683V13.8622H19.7179V16.3108H19.7899C20.3269 15.224 22.2077 13.3663 25.0778 13.3663C28.1817 13.3663 31.5348 15.2085 31.5348 20.6044L31.5322 31.5348Z" fill="#251535"/>
</svg>
