<svg width="37" height="37" viewBox="0 0 37 37" fill="none" xmlns="http://www.w3.org/2000/svg">
<path d="M-1.52588e-05 37L2.60077 27.4987C0.995899 24.7175 0.152609 21.5648 0.154151 18.332C0.158776 8.22479 8.38355 0 18.4892 0C23.3932 0.00154167 27.9966 1.91167 31.4592 5.37733C34.9202 8.843 36.8257 13.4495 36.8242 18.3489C36.8195 28.4576 28.5948 36.6824 18.4892 36.6824C15.4212 36.6809 12.398 35.9116 9.72017 34.4501L-1.52588e-05 37ZM10.1703 31.1309C12.7542 32.6648 15.2208 33.5837 18.483 33.5852C26.882 33.5852 33.7239 26.7495 33.7285 18.3458C33.7316 9.92525 26.9221 3.09875 18.4953 3.09567C10.0902 3.09567 3.25289 9.93142 3.24981 18.3335C3.24827 21.7637 4.25343 24.3321 5.94156 27.0192L4.40143 32.6432L10.1703 31.1309ZM27.7253 22.7072C27.6112 22.516 27.3059 22.402 26.8465 22.1722C26.3886 21.9425 24.1363 20.8341 23.7154 20.6815C23.2961 20.5288 22.9908 20.4517 22.684 20.9112C22.3788 21.369 21.5 22.402 21.2333 22.7072C20.9666 23.0125 20.6984 23.051 20.2405 22.8213C19.7826 22.5916 18.3057 22.109 16.5559 20.5473C15.1946 19.3325 14.2742 17.8325 14.0075 17.373C13.7408 16.9152 13.9798 16.667 14.208 16.4388C14.4145 16.2337 14.6658 15.9038 14.8955 15.6356C15.1283 15.3704 15.2039 15.1792 15.358 14.8725C15.5107 14.5672 15.4351 14.299 15.3195 14.0693C15.2039 13.8411 14.2881 11.5856 13.9073 10.6683C13.5342 9.77571 13.1565 9.89596 12.876 9.88208L11.9972 9.86667C11.692 9.86667 11.1955 9.98075 10.7762 10.4402C10.3569 10.8996 9.17288 12.0065 9.17288 14.262C9.17288 16.5174 10.8148 18.6958 11.0429 19.001C11.2726 19.3063 14.2727 23.9344 18.8684 25.9185C19.9614 26.3902 20.8155 26.6724 21.48 26.8836C22.5776 27.232 23.5766 27.1827 24.366 27.0655C25.2463 26.9345 27.0762 25.957 27.4586 24.8871C27.8409 23.8157 27.8409 22.8984 27.7253 22.7072Z" fill="#251535"/>
</svg>
